<svg version="1.1" viewBox="0.0 0.0 960.0 960.0" fill="none" stroke="none" stroke-linecap="square" stroke-miterlimit="10" xmlns:xlink="http://www.w3.org/1999/xlink" xmlns="http://www.w3.org/2000/svg"><clipPath id="p.0"><path d="m0 0l960.0 0l0 960.0l-960.0 0l0 -960.0z" clip-rule="nonzero"/></clipPath><g clip-path="url(#p.0)"><path fill="#000000" fill-opacity="0.0" d="m0 0l960.0 0l0 960.0l-960.0 0z" fill-rule="evenodd"/><defs><linearGradient id="p.1" gradientUnits="userSpaceOnUse" gradientTransform="matrix(30.976642194368505 0.0 0.0 30.976642194368505 0.0 0.0)" spreadMethod="pad" x1="-1.6854535960574255E-7" y1="-1.1224964882337803E-4" x2="-1.123036874828169E-4" y2="30.97652994451671"><stop offset="0.0" stop-color="#1077d2"/><stop offset="1.0" stop-color="#093153"/></linearGradient></defs><path fill="url(#p.1)" d="m704.59564 81.62313c33.45587 0 63.41913 5.441559 89.88971 16.324623c26.470581 10.741768 46.93628 26.077003 61.397034 46.005768c14.460815 19.928772 21.691223 44.380356 21.691223 73.35481c0 0.9669342 0.010131836 1.9074097 0.030456543 2.8213806l0 0c-25.272217 -45.233414 -74.66968 -77.9044 -148.19226 -98.01303c-21.81372 -6.3602448 -42.27942 -10.883064 -61.397034 -13.56852c-18.995117 -2.8267593 -36.519653 -4.2401657 -52.573547 -4.2401657c-25.797058 0 -53.378235 4.154297 -82.74365 12.462936l0 0c56.129272 -23.43187 113.42865 -35.147804 171.89807 -35.147804zm-208.71606 52.28443c-5.2187195 7.525055 -7.828064 14.548492 -7.828064 21.070389c0 19.928757 27.512268 31.094543 82.53674 33.497284c46.568665 1.6960602 79.411804 5.3002014 98.52942 10.812408c38.480408 13.42717 71.507385 34.133316 99.08093 62.118393c30.882324 30.24649 48.161743 62.401093 51.838196 96.463684c-7.965637 11.448456 -21.507324 28.126434 -40.625 50.033936c-18.995117 21.907501 -41.789246 45.652405 -68.382324 71.23474l-63.051514 59.786285c-59.43628 56.394165 -63.35785 84.59125 -11.764709 84.59125l15.441223 -4.2401733c100.49017 -71.517456 155.14703 -112.85904 163.97058 -124.02475l0 0c-2.4509888 28.267792 -49.571106 89.53812 -141.36029 183.81107c-129.53436 133.56512 -265.5025 200.34766 -407.90445 200.34766l-14.889725 0c-4.6568604 0 -9.375 -0.42401123 -14.154404 -1.2720337c-86.15196 -5.229492 -129.22795 -56.60614 -129.22795 -154.12988c0 -66.57056 19.791656 -142.61078 59.375 -228.12079c54.77942 -119.57257 129.16667 -217.16699 223.16179 -292.78323c34.606384 -27.856033 69.69122 -50.921448 105.25452 -69.19623zm209.81897 -133.90756c-75.0 0 -149.08087 15.971289 -222.24265 47.91384c-73.039215 31.80122 -141.60541 73.990845 -205.69855 126.56886c-111.88727 92.29419 -188.35785 190.5953 -229.41177 294.90332c-32.230377 82.54184 -48.34559 157.02744 -48.34559 223.45657c0 79.71503 20.710802 142.96417 62.132355 189.74725c41.42158 46.641846 94.66913 71.87079 159.74266 75.68695c8.7009735 0.84802246 17.340683 1.2720337 25.919113 1.2720337l25.367645 0c188.97061 0 359.4363 -78.72571 511.39713 -236.17706c101.71564 -104.30798 152.57349 -214.76425 152.57349 -331.3687c0 -26.8544 -2.4509277 -49.82193 -7.3529053 -68.90265l7.904419 -17.384674c7.8431396 -16.960663 13.480408 -34.1333 16.911743 -51.517975c3.4313965 -17.384674 5.1470947 -33.99196 5.1470947 -49.821915c0 -47.06581 -12.132385 -85.72194 -36.397095 -115.96845c-24.14215 -30.387836 -55.33087 -52.71937 -93.56616 -66.99457c-38.112793 -14.275223 -79.47308 -21.41282 -124.08093 -21.41282z" fill-rule="evenodd"/></g></svg>